:SAMPLES-PER-SECOND 24
:FULLY-SPECIFIED
:DEGREES
442
root  -4.88184 39.401 31.9546 -157.824 69.8882 -157.256
RightUpLeg  1.59631 -19.392 -17.5561
RightLeg  19.8982 0.829317 0.133075
RightFoot  13.1 -2.42342 11.5831
RightToes  -1.46203e-006 3.27826e-006 1.63871e-007
Spine  4.20113 3.0745 1.35281
Spine1  15.5207 2.57766 0.804828
HEad  -23.4597 48.2956 -29.346
LeftShoulder1  1.37996 -1.95904 -18.7061
LeftArm  3.43964 -3.23866 -43.4654
LeftForeArm  133.195 -72.0463 -144.634
LeftHand  0.0981231 7.72829 6.50956
RightShoulder  3.54084 5.96051 31.526
RightArm  -17.1422 -9.94139 25.4731
RightForeArm  57.4939 78.6013 80.996
RightHand  -0.702547 -1.88035 -23.0005
LeftUpLeg  -5.19947 16.6914 1.86308
LeftLeg  24.0843 1.51922 1.01418
LeftFoot  -14.0997 0.252213 7.86467
LeftToes  1.24767e-006 1.47042e-008 1.32732e-009
443
root  -5.21515 38.5423 34.1269 -161.314 66.4569 -161.397
RightUpLeg  3.27714 -18.9789 -20.9841
RightLeg  19.2791 -3.4331 -1.54217
RightFoot  15.7596 -2.3463 10.1685
RightToes  -1.46203e-006 3.27826e-006 1.63871e-007
Spine  4.37218 2.68487 0.441591
Spine1  18.1276 2.57082 -0.46276
HEad  -27.062 44.6732 -30.8562
LeftShoulder1  1.44272 -2.15518 -18.9575
LeftArm  -1.91065 -10.6404 -39.8706
LeftForeArm  134.913 -71.2344 -146.485
LeftHand  0.216098 8.85684 8.37034
RightShoulder  3.56152 5.95507 31.7682
RightArm  -15.2732 -9.54761 30.3943
RightForeArm  20.9172 69.7071 30.3768
RightHand  0.448388 -7.77302 -22.1769
LeftUpLeg  -11.8714 14.542 4.05155
LeftLeg  32.3604 -0.952615 -0.283233
LeftFoot  -18.4452 0.416399 4.91883
LeftToes  1.24767e-006 1.47042e-008 1.32732e-009
444
root  -5.32874 38.3565 36.2127 -162.199 66.3739 -162.695
RightUpLeg  3.69639 -17.5524 -22.9578
RightLeg  18.9074 -4.27094 -1.83373
RightFoot  17.5666 -2.44437 9.93687
RightToes  -1.46203e-006 3.27826e-006 1.63871e-007
Spine  4.56594 3.33892 1.55001
Spine1  19.2492 4.31904 -3.39749
HEad  -26.9993 42.7072 -31.7466
LeftShoulder1  1.54972 -2.39194 -19.8109
LeftArm  -5.02689 -10.2403 -37.683
LeftForeArm  132.71 -73.5268 -141.271
LeftHand  0.425592 9.00899 14.6683
RightShoulder  3.73432 6.11779 32.9298
RightArm  -9.77002 -11.8585 33.4503
RightForeArm  24.7369 64.7616 21.8684
RightHand  0.989049 -13.2157 -14.8751
LeftUpLeg  -15.0966 13.8488 6.03758
LeftLeg  34.6702 0.211573 0.518026
LeftFoot  -17.8625 0.283108 3.08355
LeftToes  1.24767e-006 1.47042e-008 1.32732e-009
445
root  -5.21231 38.8835 38.2795 -160.304 68.3446 -161.168
RightUpLeg  3.49052 -16.0338 -22.4634
RightLeg  17.5069 -3.6758 -1.50899
RightFoot  17.2273 -2.53394 10.4053
RightToes  -1.46203e-006 3.27826e-006 1.63871e-007
Spine  4.02012 4.50264 2.42309
Spine1  19.1032 5.92352 -4.30896
HEad  -23.5266 43.3228 -31.9927
LeftShoulder1  1.5942 -2.22218 -21.4772
LeftArm  -4.75261 -3.81132 -36.4941
LeftForeArm  116.445 -78.128 -120.565
LeftHand  0.58125 8.24615 23.7618
RightShoulder  3.92002 6.27835 34.1875
RightArm  -3.42657 -17.7067 34.7504
RightForeArm  35.2195 70.3212 29.2157
RightHand  0.120088 -9.58302 -3.31096
LeftUpLeg  -14.2712 13.2797 9.07772
LeftLeg  30.1198 1.76224 1.4818
LeftFoot  -13.7266 0.0844937 -0.181606
LeftToes  1.24767e-006 1.47042e-008 1.32732e-009
446
root  -5.04524 39.5882 40.3807 -158.749 69.5827 -159.782
RightUpLeg  3.98595 -17.6028 -21.307
RightLeg  16.0554 -1.08208 -0.505891
RightFoot  15.7408 -2.46505 10.6655
RightToes  -1.46203e-006 3.27826e-006 1.63871e-007
Spine  3.48647 4.37395 2.66385
Spine1  18.03 5.79054 -4.21917
HEad  -19.2911 46.0197 -30.7139
LeftShoulder1  1.58889 -1.97535 -22.6969
LeftArm  -4.16855 3.91971 -34.4289
LeftForeArm  59.8637 -78.4875 -62.2006
LeftHand  0.457427 7.3015 27.3164
RightShoulder  3.95008 6.29502 34.4236
RightArm  1.55651 -22.7586 36.9445
RightForeArm  59.5229 78.124 57.1746
RightHand  -0.148547 -6.87663 7.23693
LeftUpLeg  -12.2597 11.5527 12.512
LeftLeg  23.7896 2.57515 1.60384
LeftFoot  -6.9764 0.252502 -5.11033
LeftToes  1.24767e-006 1.47042e-008 1.32732e-009
447
root  -4.95822 39.9744 42.512 -160.429 70.9843 -161.181
RightUpLeg  4.51169 -20.6042 -21.4974
RightLeg  15.9541 3.13607 0.90708
RightFoot  16.2716 -2.69035 11.3784
RightToes  -1.46203e-006 3.27826e-006 1.63871e-007
Spine  3.49882 3.36689 2.53344
Spine1  16.9981 5.03445 -5.27718
HEad  -15.8325 49.3297 -29.0497
LeftShoulder1  1.62427 -2.02436 -23.101
LeftArm  -2.70439 9.7566 -32.0489
LeftForeArm  21.6327 -67.2731 -25.8568
LeftHand  0.166993 6.15736 25.3158
RightShoulder  3.85304 6.22401 33.7255
RightArm  6.32157 -23.9583 39.1018
RightForeArm  111.247 78.8521 113.885
RightHand  -0.289158 -7.55525 12.3549
LeftUpLeg  -10.4791 10.1114 14.6248
LeftLeg  19.0255 6.80609 2.89683
LeftFoot  -0.379224 0.623437 -6.47048
LeftToes  1.24767e-006 1.47042e-008 1.32732e-009
448
root  -4.93099 39.8121 44.6526 -164.007 73.6509 -164.297
RightUpLeg  3.83686 -21.278 -22.2504
RightLeg  17.9754 6.21709 2.03882
RightFoot  15.4041 -3.70085 16.0115
RightToes  -1.46203e-006 3.27826e-006 1.63871e-007
Spine  3.58408 3.01247 2.04507
Spine1  16.1712 4.91987 -6.07602
HEad  -12.8117 51.6599 -27.766
LeftShoulder1  1.66378 -2.27289 -22.4925
LeftArm  2.73102 12.2995 -31.686
LeftForeArm  5.91206 -50.6957 -13.2567
LeftHand  -0.0454885 5.18313 22.6183
RightShoulder  3.58928 6.02198 31.7904
RightArm  9.67359 -22.121 40.4722
RightForeArm  135.496 71.5493 146.005
RightHand  -0.295961 -7.94581 10.8557
LeftUpLeg  -9.2798 10.4612 15.6969
LeftLeg  18.1169 9.3558 3.66462
LeftFoot  1.11262 0.491788 -4.52099
LeftToes  1.24767e-006 1.47042e-008 1.32732e-009
449
root  -5.00314 39.0415 46.8229 -167.39 75.8949 -167.085
RightUpLeg  2.78984 -20.2204 -21.8822
RightLeg  22.2066 8.1984 3.46173
RightFoot  5.37147 -3.23068 22.3887
RightToes  -1.46203e-006 3.27826e-006 1.63871e-007
Spine  4.36276 2.91318 1.44
Spine1  14.8804 4.68725 -5.60217
HEad  -11.7048 52.8507 -27.4202
LeftShoulder1  1.69031 -2.60967 -21.2753
LeftArm  14.9321 11.7643 -33.3202
LeftForeArm  -4.5835 -32.7242 -7.17243
LeftHand  -0.164552 4.4206 18.7437
RightShoulder  3.21537 5.65619 29.1718
RightArm  9.83053 -16.8242 40.7061
RightForeArm  135.757 62.8965 157.342
RightHand  -0.22823 -9.12937 5.29293
LeftUpLeg  -10.3313 11.5941 17.0647
LeftLeg  24.3789 4.43126 2.41561
LeftFoot  -3.55317 0.414981 -6.03723
LeftToes  1.24767e-006 1.47042e-008 1.32732e-009
450
root  -5.29235 37.8497 48.8054 -168.205 76.7947 -166.887
RightUpLeg  1.68037 -20.8306 -20.261
RightLeg  28.2686 10.7428 6.0039
RightFoot  -9.82067 -0.387874 22.0706
RightToes  -1.46203e-006 3.27826e-006 1.63871e-007
Spine  5.8488 1.82322 2.39012
Spine1  15.2396 3.62745 -5.48025
HEad  -17.4393 53.7902 -32.0777
LeftShoulder1  1.84379 -3.03177 -21.8664
LeftArm  23.4053 10.2821 -33.6758
LeftForeArm  -6.54263 -19.483 -7.91026
LeftHand  -0.197734 3.96599 15.2913
RightShoulder  3.05454 5.38503 28.4246
RightArm  4.72735 -4.75034 37.0094
RightForeArm  130.12 57.3164 161.25
RightHand  -0.0541858 -7.8297 0.317918
LeftUpLeg  -13.2279 11.6093 18.7798
LeftLeg  34.3294 1.54612 1.47377
LeftFoot  -8.52241 0.269982 -9.02789
LeftToes  1.24767e-006 1.47042e-008 1.32732e-009
451
root  -5.63977 36.9963 50.293 -166.282 78.0375 -164.081
RightUpLeg  -0.0716205 -21.9524 -18.2763
RightLeg  33.1169 11.8781 8.00281
RightFoot  -18.4762 0.922738 16.714
RightToes  -1.46203e-006 3.27826e-006 1.63871e-007
Spine  6.48981 0.531213 4.97101
Spine1  18.0866 2.95599 -6.67409
HEad  -27.3933 54.1434 -39.9557
LeftShoulder1  2.05571 -3.26218 -24.1645
LeftArm  20.605 11.312 -33.3492
LeftForeArm  -1.92392 -16.1581 -9.64222
LeftHand  -0.0749362 4.9379 16.5195
RightShoulder  3.22189 5.49856 29.8815
RightArm  -5.63552 8.28336 30.6513
RightForeArm  122.173 59.6052 159.004
RightHand  -0.0232823 -5.71968 -2.07924
LeftUpLeg  -15.2904 11.5337 19.608
LeftLeg  40.2359 6.88663 6.59332
LeftFoot  -9.91831 0.158808 -7.99992
LeftToes  1.24767e-006 1.47042e-008 1.32732e-009
452
root  -5.66262 37.0524 51.2211 -164.658 80.0949 -162.426
RightUpLeg  -1.09248 -21.0242 -16.6806
RightLeg  33.4003 12.076 8.22212
RightFoot  -19.446 0.932965 14.9397
RightToes  -1.46203e-006 3.27826e-006 1.63871e-007
Spine  5.94911 0.793631 6.84124
Spine1  19.476 3.74401 -7.49617
HEad  -30.8828 54.4739 -41.4647
LeftShoulder1  2.13246 -3.24444 -25.4382
LeftArm  22.4077 16.084 -35.5588
LeftForeArm  -7.72719 -22.7954 -5.87033
LeftHand  -0.072249 5.01291 19.5978
RightShoulder  3.40559 5.71149 31.0673
RightArm  -12.4103 9.45715 27.7479
RightForeArm  114.817 67.0341 150.686
RightHand  -0.030497 -5.46261 -10.1734
LeftUpLeg  -15.1478 11.6273 19.6879
LeftLeg  40.4281 13.4839 12.3662
LeftFoot  -6.68769 0.267491 -5.59241
LeftToes  1.24767e-006 1.47042e-008 1.32732e-009
453
root  -5.29031 38.0306 51.663 -170.045 81.4981 -168.244
RightUpLeg  0.352977 -19.0712 -16.4941
RightLeg  28.6649 12.112 6.8792
RightFoot  -15.5013 0.4948 16.3388
RightToes  -1.46203e-006 3.27826e-006 1.63871e-007
Spine  4.98341 2.28734 6.66081
Spine1  18.2027 5.19821 -7.13151
HEad  -27.0501 55.155 -36.3609
LeftShoulder1  2.09948 -3.17677 -25.2561
LeftArm  15.3257 21.7105 -38.0788
LeftForeArm  -2.74804 -30.8416 -6.82332
LeftHand  -0.296461 3.74536 20.5426
RightShoulder  3.55979 5.84507 32.1967
RightArm  -13.2986 -0.431639 28.3056
RightForeArm  110.161 73.0673 138.772
RightHand  0.722229 -8.13927 -28.7069
LeftUpLeg  -13.1087 12.3817 19.2559
LeftLeg  35.967 13.58 10.7626
LeftFoot  2.54654 0.926415 -7.44448
LeftToes  1.24767e-006 1.47042e-008 1.32732e-009
454
root  -4.82199 39.4465 51.688 178.349 81.3125 179.91
RightUpLeg  3.10747 -18.3353 -18.0575
RightLeg  22.2951 12.2887 5.27579
RightFoot  -6.22352 -0.896177 18.8499
RightToes  -1.46203e-006 3.27826e-006 1.63871e-007
Spine  3.90794 3.107 5.69058
Spine1  17.2858 5.88024 -6.62967
HEad  -24.076 55.4709 -33.2081
LeftShoulder1  2.08347 -3.18585 -24.9622
LeftArm  11.62 25.7771 -39.4801
LeftForeArm  3.24835 -38.1528 -8.60705
LeftHand  -0.258979 4.07783 22.5085
RightShoulder  3.81548 6.04092 34.088
RightArm  -12.8639 -10.8486 28.3909
RightForeArm  98.6818 77.5109 118.667
RightHand  2.22236 -11.7853 -38.3595
LeftUpLeg  -10.991 14.4451 17.8552
LeftLeg  30.6587 6.96411 4.83317
LeftFoot  12.705 1.96701 -9.58099
LeftToes  1.24767e-006 1.47042e-008 1.32732e-009
455
root  -4.47195 40.6417 51.5464 167.758 80.3063 168.946
RightUpLeg  4.19368 -17.7147 -20.2331
RightLeg  18.8213 12.3949 4.49919
RightFoot  3.78301 -2.91573 21.9126
RightToes  -1.46203e-006 3.27826e-006 1.63871e-007
Spine  2.96533 3.09424 4.72208
Spine1  16.8286 5.79875 -6.74396
HEad  -22.8375 55.37 -32.3071
LeftShoulder1  2.05344 -3.17474 -24.5455
LeftArm  11.4906 27.6106 -39.2431
LeftForeArm  8.42126 -44.1785 -10.3126
LeftHand  -0.108267 4.90652 25.3766
RightShoulder  3.97255 6.20827 35.0083
RightArm  -11.9681 -18.67 28.1216
RightForeArm  72.1144 79.2538 85.6666
RightHand  1.70632 -11.6191 -30.9489
LeftUpLeg  -10.7714 16.8285 15.5991
LeftLeg  29.4923 -1.19669 -0.386186
LeftFoot  15.3555 2.06893 -9.1051
LeftToes  1.24767e-006 1.47042e-008 1.32732e-009
456
root  -4.28273 41.2241 51.4858 158.838 79.2332 159.207
RightUpLeg  3.18441 -16.9974 -22.233
RightLeg  18.7732 11.5811 4.14192
RightFoot  6.2608 -3.39338 21.9296
RightToes  -1.46203e-006 3.27826e-006 1.63871e-007
Spine  2.67511 3.1593 3.82343
Spine1  15.5654 6.034 -8.20609
HEad  -21.7702 54.2894 -30.6554
LeftShoulder1  1.98164 -3.09975 -23.77
LeftArm  13.9108 26.873 -37.0161
LeftForeArm  11.7462 -49.649 -12.3526
LeftHand  -0.100062 4.93283 24.3163
RightShoulder  3.86013 6.19227 33.9259
RightArm  -8.93473 -25.3142 29.1158
RightForeArm  51.9505 78.1213 62.7034
RightHand  0.740333 -9.74949 -20.0761
LeftUpLeg  -12.6903 18.8282 13.4469
LeftLeg  32.1708 -4.83743 -2.90521
LeftFoot  13.1846 2.07657 -9.91209
LeftToes  1.24767e-006 1.47042e-008 1.32732e-009
